<svg xmlns="http://www.w3.org/2000/svg" viewBox="0 0 100 125" x="0px" y="0px"><title>Social Media</title><g data-name="Layer 20"><path d="M15.89,35.58a3.89,3.89,0,1,0,3.89,3.89A3.89,3.89,0,0,0,15.89,35.58Zm0,5.78a1.89,1.89,0,1,1,1.89-1.89A1.89,1.89,0,0,1,15.89,41.36Z"/><path d="M31.47,35.58a3.89,3.89,0,1,0,3.89,3.89A3.89,3.89,0,0,0,31.47,35.58Zm0,5.78a1.89,1.89,0,1,1,1.89-1.89A1.89,1.89,0,0,1,31.47,41.36Z"/><path d="M88.6,24.23H58.94v-6.6a7.4,7.4,0,0,0-7.39-7.39H11.4A7.41,7.41,0,0,0,4,17.63V57.79a7.41,7.41,0,0,0,7.4,7.39h3.19v9.59a1,1,0,0,0,.55.89,1,1,0,0,0,.45.11,1,1,0,0,0,.6-.2L29.88,65.18H41.06v6.6a7.4,7.4,0,0,0,7.39,7.39H70.12L83.81,89.56a1,1,0,0,0,.6.2,1,1,0,0,0,.45-.1,1,1,0,0,0,.55-.9V79.17H88.6A7.41,7.41,0,0,0,96,71.78V31.63A7.41,7.41,0,0,0,88.6,24.23Zm-47.54,39H29.54a1,1,0,0,0-.6.2L16.59,72.75V64.18a1,1,0,0,0-1-1H11.4A5.4,5.4,0,0,1,6,57.79V17.63a5.4,5.4,0,0,1,5.4-5.39H51.55a5.4,5.4,0,0,1,5.39,5.39v6.6H48.45a7.41,7.41,0,0,0-7.39,7.4ZM94,71.78a5.4,5.4,0,0,1-5.4,5.39H84.41a1,1,0,0,0-1,1v8.58L71.06,77.38a1,1,0,0,0-.6-.21h-22a5.4,5.4,0,0,1-5.39-5.39V31.63a5.4,5.4,0,0,1,5.39-5.4H88.6a5.4,5.4,0,0,1,5.4,5.4Z"/><path d="M53,48.77a3.9,3.9,0,1,0,3.89,3.9A3.9,3.9,0,0,0,53,48.77Zm0,5.79a1.9,1.9,0,1,1,1.89-1.89A1.89,1.89,0,0,1,53,54.56Z"/><path d="M68.53,48.77a3.9,3.9,0,1,0,3.89,3.9A3.9,3.9,0,0,0,68.53,48.77Zm0,5.79a1.9,1.9,0,1,1,1.89-1.89A1.89,1.89,0,0,1,68.53,54.56Z"/><path d="M84.11,48.77A3.9,3.9,0,1,0,88,52.67,3.9,3.9,0,0,0,84.11,48.77Zm0,5.79A1.9,1.9,0,1,1,86,52.67,1.89,1.89,0,0,1,84.11,54.56Z"/></g><text x="0" y="115" fill="#000000" font-size="5px" font-weight="bold" font-family="'Helvetica Neue', Helvetica, Arial-Unicode, Arial, Sans-serif">Created by Lars Meiertoberens</text><text x="0" y="120" fill="#000000" font-size="5px" font-weight="bold" font-family="'Helvetica Neue', Helvetica, Arial-Unicode, Arial, Sans-serif">from the Noun Project</text></svg>