<svg xmlns="http://www.w3.org/2000/svg" xmlns:xlink="http://www.w3.org/1999/xlink" version="1.1" x="0px" y="0px" viewBox="0 0 42 52.5" style="enable-background:new 0 0 42 42;" xml:space="preserve"><style type="text/css">
	.st0{fill:#020202;}
	.st1{fill:none;stroke:#231F20;stroke-width:2;stroke-linecap:round;stroke-linejoin:round;stroke-miterlimit:10;}
</style><g><path d="M31,8H11c-3.3,0-6,2.7-6,6v14c0,3.3,2.7,6,6,6h20c3.3,0,6-2.7,6-6V14C37,10.7,34.3,8,31,8z M35,28   c0,2.2-1.8,4-4,4H11c-2.2,0-4-1.8-4-4V14c0-2.2,1.8-4,4-4h20c2.2,0,4,1.8,4,4V28z"/><path d="M27.5,20.1l-10-6c-0.3-0.2-0.7-0.2-1,0C16.2,14.3,16,14.6,16,15v12c0,0.4,0.2,0.7,0.5,0.9   c0.3,0.2,0.7,0.2,1,0l10-6c0.3-0.2,0.5-0.5,0.5-0.9S27.8,20.3,27.5,20.1z M18,25.2v-8.5l7.1,4.2L18,25.2z"/></g><text x="0" y="57" fill="#000000" font-size="5px" font-weight="bold" font-family="'Helvetica Neue', Helvetica, Arial-Unicode, Arial, Sans-serif">Created by Josy Dom Alexis</text><text x="0" y="62" fill="#000000" font-size="5px" font-weight="bold" font-family="'Helvetica Neue', Helvetica, Arial-Unicode, Arial, Sans-serif">from the Noun Project</text></svg>