<svg xmlns="http://www.w3.org/2000/svg" xmlns:xlink="http://www.w3.org/1999/xlink" version="1.1" x="0px" y="0px" viewBox="0 0 200 250" style="enable-background:new 0 0 200 200;" xml:space="preserve"><g><path d="M61.5,99.077h-6c-1.93,0-3.5-1.57-3.5-3.5V68.748c0-1.93,1.57-3.5,3.5-3.5h49.622c1.933,0,3.5-1.567,3.5-3.5   s-1.567-3.5-3.5-3.5H55.5c-5.79,0-10.5,4.71-10.5,10.5v26.829c0,5.79,4.71,10.5,10.5,10.5h6c1.933,0,3.5-1.567,3.5-3.5   S63.433,99.077,61.5,99.077z"/><path d="M144.5,79.723h-39.378c-1.933,0-3.5,1.567-3.5,3.5v13.878c0,1.089-0.887,1.976-1.977,1.976H83.688   c-0.076,0-0.147,0.018-0.221,0.022c-0.134,0.008-0.268,0.016-0.401,0.04c-0.105,0.019-0.204,0.049-0.305,0.077   c-0.117,0.032-0.233,0.063-0.348,0.108c-0.106,0.042-0.205,0.094-0.306,0.146c-0.101,0.051-0.201,0.1-0.297,0.161   c-0.109,0.069-0.207,0.15-0.307,0.231c-0.062,0.05-0.129,0.087-0.188,0.142l-15.392,14.2c-1.421,1.311-1.51,3.524-0.199,4.945   c0.689,0.748,1.63,1.127,2.573,1.127c0.849,0,1.699-0.307,2.372-0.928l14.386-13.272h14.591c4.949,0,8.977-4.026,8.977-8.976   V86.723H144.5c1.93,0,3.5,1.57,3.5,3.5v26.83c0,1.93-1.57,3.5-3.5,3.5h-6c-1.933,0-3.5,1.567-3.5,3.5s1.567,3.5,3.5,3.5h6   c5.79,0,10.5-4.71,10.5-10.5v-26.83C155,84.433,150.29,79.723,144.5,79.723z"/><path d="M117.685,121.481c-0.058-0.054-0.125-0.091-0.186-0.14c-0.101-0.082-0.2-0.163-0.31-0.233   c-0.093-0.059-0.19-0.106-0.287-0.156c-0.105-0.054-0.208-0.108-0.319-0.152c-0.107-0.042-0.217-0.071-0.327-0.101   c-0.109-0.031-0.215-0.063-0.328-0.083c-0.123-0.022-0.246-0.029-0.37-0.037c-0.083-0.006-0.161-0.025-0.245-0.025h-14.958   c-1.089,0-1.976-0.887-1.976-1.977c0-1.933-1.567-3.5-3.5-3.5s-3.5,1.567-3.5,3.5c0,4.949,4.026,8.977,8.976,8.977h13.591   l14.387,13.271c0.673,0.621,1.523,0.928,2.372,0.928c0.943,0,1.884-0.379,2.573-1.127c1.311-1.421,1.222-3.635-0.199-4.945   L117.685,121.481z"/></g><text x="0" y="215" fill="#000000" font-size="5px" font-weight="bold" font-family="'Helvetica Neue', Helvetica, Arial-Unicode, Arial, Sans-serif">Created by Symbolon</text><text x="0" y="220" fill="#000000" font-size="5px" font-weight="bold" font-family="'Helvetica Neue', Helvetica, Arial-Unicode, Arial, Sans-serif">from the Noun Project</text></svg>